<svg xmlns="http://www.w3.org/2000/svg" width="21" height="20" viewBox="0 0 21 20"><path fill="#fff" d="M17.92 3.065L16.25.763c-.335-.464-.87-.75-1.478-.755L7.652 0v5.6c0 .096-.046.185-.126.237-.08.052-.18.06-.268.02l-1.413-.64c-.072-.034-.155-.034-.228-.002l-1.49.65c-.086.038-.19.03-.27-.023-.08-.052-.13-.14-.13-.235V0H2.19c-.535 0-.957.434-.957.97 0 0 .025 15.952.03 15.993.085.51.38.962.812 1.242l2.334 1.528c.26.172.564.267.876.267h10.307c1.452 0 2.634-1.19 2.634-2.64V4.007c0-.34-.107-.668-.307-.942zm-1.5 14.295c0 .464-.36.833-.827.833H5.34l-1.674-1.09h10.34c.538 0 .954-.44.954-.978V2.04l1.46 2.026V17.36z"/></svg>