<svg xmlns="http://www.w3.org/2000/svg" width="21" height="20" viewBox="0 0 21 20"><path fill="#fff" d="M19.998 6.766l-5.76-.544c-.36-.032-.675-.264-.82-.61l-2.065-5c-.33-.824-1.5-.824-1.83 0l-2.047 5c-.132.345-.462.577-.824.61l-5.758.544C.034 6.848-.312 7.92.334 8.5l4.337 3.81c.28.246.396.61.315.975L3.68 18.63c-.198.842.71 1.534 1.47 1.09l4.8-2.823c.313-.18.695-.18 1.006 0l4.803 2.822c.758.444 1.665-.23 1.467-1.09l-1.288-5.345c-.082-.365.034-.73.312-.975l4.34-3.81c.627-.58.263-1.652-.594-1.734z"/></svg>